<svg width="32" height="32" viewBox="0 0 32 32" fill="none" xmlns="http://www.w3.org/2000/svg">
<circle cx="16" cy="16" r="16" fill="url(#paint0_linear_107_2130)"/>
<path d="M19.1602 16.3346L24.9974 21.3378C25.1215 21.0534 25.1857 20.7465 25.1857 20.4362V12.498L19.1602 16.3346Z" fill="white"/>
<path d="M16.4843 16.2383L25.1083 10.7497C24.982 10.2626 24.698 9.83099 24.3006 9.52225C23.9033 9.2135 23.4149 9.04498 22.9117 9.04297H9.23961C8.7364 9.04498 8.24801 9.2135 7.85064 9.52225C7.45327 9.83099 7.16927 10.2626 7.04297 10.7497L15.6678 16.2383C15.7899 16.3155 15.9315 16.3565 16.076 16.3565C16.2205 16.3565 16.3621 16.3155 16.4843 16.2383Z" fill="white"/>
<path d="M6.95703 12.498V20.4362C6.95731 20.746 7.02144 21.0524 7.1454 21.3363L12.9826 16.3346L6.95703 12.498Z" fill="white"/>
<path d="M17.8269 17.1809L17.2953 17.5205C16.9291 17.7517 16.505 17.8744 16.072 17.8744C15.639 17.8744 15.2148 17.7517 14.8487 17.5205L14.317 17.1802C14.3056 17.1908 14.3011 17.2052 14.2897 17.2151L8.18359 22.4454C8.5062 22.6198 8.86662 22.7124 9.2333 22.7151H22.9054C23.2723 22.7124 23.633 22.6198 23.9558 22.4454L17.8543 17.2151C17.8421 17.2052 17.8376 17.1908 17.8269 17.1809Z" fill="white"/>
<defs>
<linearGradient id="paint0_linear_107_2130" x1="14.2545" y1="-3.76471" x2="33.3595" y2="18.8014" gradientUnits="userSpaceOnUse">
<stop stop-color="#A4CD93"/>
<stop offset="1" stop-color="#00B4D1"/>
</linearGradient>
</defs>
</svg>
