<svg width="32" height="32" viewBox="0 0 32 32" fill="none" xmlns="http://www.w3.org/2000/svg">
<circle cx="16" cy="16" r="16" fill="url(#paint0_linear_107_2115)"/>
<path d="M24.541 20.6113C24.4912 20.4611 24.174 20.2398 23.5899 19.948C23.4316 19.8561 23.2061 19.7311 22.9143 19.5725C22.6223 19.414 22.3572 19.2679 22.1196 19.1343C21.8814 19.0008 21.6584 18.8715 21.4499 18.7465C21.4166 18.7215 21.3123 18.6486 21.1371 18.5274C20.9617 18.4065 20.8138 18.3167 20.6926 18.2582C20.5716 18.2 20.4527 18.1707 20.3358 18.1707C20.169 18.1707 19.9606 18.2897 19.7104 18.5274C19.4601 18.7653 19.2306 19.0238 19.0221 19.3035C18.8136 19.5832 18.5924 19.8416 18.359 20.0795C18.1253 20.3174 17.9332 20.4362 17.7832 20.4362C17.7079 20.4362 17.614 20.4152 17.5015 20.3738C17.389 20.3321 17.3034 20.2964 17.2447 20.2676C17.1865 20.2382 17.0866 20.1799 16.9446 20.092C16.8024 20.0044 16.7233 19.9564 16.7067 19.948C15.5636 19.3138 14.5833 18.5878 13.7655 17.7704C12.948 16.9525 12.2219 15.9722 11.5878 14.829C11.5795 14.8123 11.5314 14.733 11.4439 14.5913C11.3562 14.4494 11.2978 14.3494 11.2686 14.2908C11.2394 14.2324 11.2039 14.1469 11.1623 14.0343C11.1206 13.9216 11.0997 13.8278 11.0997 13.7526C11.0997 13.6025 11.2186 13.4105 11.4564 13.1769C11.6942 12.9434 11.9529 12.7222 12.2324 12.5137C12.512 12.3053 12.7705 12.0757 13.0083 11.8255C13.2461 11.5752 13.365 11.3667 13.365 11.1998C13.365 11.0831 13.3358 10.9641 13.2774 10.8431C13.2191 10.7219 13.1294 10.574 13.0083 10.3987C12.8873 10.2235 12.8143 10.1193 12.7892 10.0857C12.6642 9.8773 12.535 9.65412 12.4013 9.4163C12.2677 9.17853 12.1218 8.91349 11.9632 8.62149C11.8047 8.32962 11.6796 8.10425 11.5877 7.94574C11.2959 7.36178 11.0748 7.04457 10.9246 6.99469C10.8661 6.96966 10.7785 6.95703 10.6618 6.95703C10.4364 6.95703 10.1423 6.99868 9.77936 7.08223C9.4163 7.16565 9.13062 7.25315 8.92199 7.34508C8.50479 7.52021 8.06261 8.02916 7.5953 8.87176C7.16977 9.65592 6.95703 10.4321 6.95703 11.1996C6.95703 11.4247 6.97163 11.6437 7.00082 11.8567C7.03002 12.0694 7.08219 12.3093 7.15737 12.5764C7.23242 12.8434 7.29296 13.0417 7.33872 13.1708C7.38453 13.3001 7.47006 13.5316 7.59526 13.8654C7.72028 14.1992 7.79546 14.4035 7.82049 14.4786C8.11249 15.2964 8.45877 16.0264 8.85922 16.6689C9.51809 17.7369 10.4172 18.8406 11.5561 19.9796C12.6951 21.1185 13.7985 22.0176 14.8666 22.6767C15.509 23.0771 16.2393 23.4233 17.0569 23.7156C17.1321 23.7404 17.3364 23.8155 17.67 23.9409C18.0038 24.066 18.2354 24.1516 18.3646 24.1975C18.4939 24.2434 18.6923 24.304 18.959 24.3792C19.2263 24.4543 19.466 24.5065 19.6788 24.5359C19.8917 24.5647 20.1107 24.5796 20.3359 24.5796C21.1034 24.5796 21.8796 24.3667 22.6638 23.9412C23.5064 23.4741 24.0152 23.0318 24.1904 22.6143C24.2825 22.4059 24.3698 22.1201 24.4532 21.7571C24.5369 21.3942 24.5785 21.1002 24.5785 20.8748C24.5787 20.7576 24.5662 20.6702 24.541 20.6113Z" fill="white"/>
<defs>
<linearGradient id="paint0_linear_107_2115" x1="14.2545" y1="-3.76471" x2="33.3595" y2="18.8014" gradientUnits="userSpaceOnUse">
<stop stop-color="#A4CD93"/>
<stop offset="1" stop-color="#00B4D1"/>
</linearGradient>
</defs>
</svg>
