<svg width="18" height="18" viewBox="0 0 18 18" fill="none" xmlns="http://www.w3.org/2000/svg">
<path fill-rule="evenodd" clip-rule="evenodd" d="M8.71272 0C3.90816 0 0 3.90925 0 8.71517C0 10.6211 0.614658 12.3887 1.65953 13.8235L0.573605 17.0615L3.92347 15.9909C5.30127 16.9029 6.94548 17.4305 8.71777 17.4305C13.5223 17.4305 17.4305 13.5211 17.4305 8.71532C17.4305 3.9094 13.5223 0.000144066 8.71777 0.000144066L8.71272 0ZM6.27964 4.42692C6.11065 4.02218 5.98258 4.00686 5.72656 3.99645C5.63939 3.99139 5.54225 3.98633 5.43455 3.98633C5.10149 3.98633 4.75325 4.08365 4.5432 4.29881C4.28719 4.5601 3.65199 5.16973 3.65199 6.41994C3.65199 7.67015 4.56373 8.87929 4.6866 9.04847C4.81468 9.21736 6.46409 11.8202 9.0251 12.881C11.0278 13.711 11.6221 13.634 12.0779 13.5367C12.7437 13.3933 13.5787 12.9012 13.7888 12.307C13.9988 11.7126 13.9988 11.2053 13.9372 11.0977C13.8758 10.9902 13.7066 10.9289 13.4506 10.8006C13.1946 10.6725 11.9498 10.0576 11.7142 9.97565C11.4836 9.8886 11.2635 9.9194 11.0894 10.1654C10.8435 10.5086 10.6028 10.8571 10.4081 11.0671C10.2544 11.2311 10.0033 11.2516 9.79344 11.1644C9.51169 11.0467 8.72299 10.7698 7.74967 9.90392C6.99666 9.23284 6.48449 8.39778 6.33603 8.14675C6.18742 7.89066 6.32069 7.74187 6.43836 7.60363C6.56644 7.44472 6.68933 7.33207 6.81741 7.18342C6.94549 7.03492 7.01719 6.95799 7.09916 6.78375C7.18633 6.61471 7.12473 6.44047 7.0633 6.31236C7.00186 6.18424 6.48969 4.93403 6.27964 4.42692Z" fill="#00B4D1"/>
</svg>
